<?xml version="1.0" standalone="no"?>
<!DOCTYPE svg PUBLIC "-//W3C//DTD SVG 20010904//EN"
 "http://www.w3.org/TR/2001/REC-SVG-20010904/DTD/svg10.dtd">
<svg version="1.0" xmlns="http://www.w3.org/2000/svg"
 width="700.000000pt" height="700.000000pt" viewBox="0 0 700.000000 700.000000"
 preserveAspectRatio="xMidYMid meet">
<metadata>
Created by potrace 1.14, written by Peter Selinger 2001-2017
</metadata>
<g transform="translate(0.000000,700.000000) scale(0.100000,-0.100000)"
fill="#000000" stroke="none">
<path d="M0 3499 l0 -1228 995 1 c547 0 995 3 996 7 1 3 2 556 3 1227 l1 1221
-997 0 -998 0 0 -1228z m1090 616 c223 -39 366 -260 374 -581 9 -335 -118
-577 -336 -639 -188 -53 -381 10 -480 157 -79 117 -109 227 -114 413 -8 320
84 527 272 617 92 43 173 53 284 33z"/>
<path d="M951 3843 c-38 -19 -76 -95 -86 -173 -11 -80 -12 -243 -3 -319 20
-156 87 -232 172 -197 39 16 60 46 82 122 26 86 26 364 0 451 -32 108 -93 151
-165 116z"/>
<path d="M2505 4706 c-2 -11 -3 -563 -2 -1226 l2 -1205 995 0 995 0 1 1226 2
1227 -994 -1 -994 0 -5 -21z m1118 -597 c172 -45 303 -221 334 -447 13 -99 8
-291 -11 -377 -65 -295 -268 -446 -541 -401 -102 16 -223 107 -279 208 -63
114 -88 224 -91 398 -5 344 131 576 367 624 70 14 157 12 221 -5z"/>
<path d="M3471 3850 c-70 -16 -112 -141 -113 -335 -1 -151 10 -231 43 -297 35
-69 98 -90 156 -53 27 18 62 88 69 138 3 18 7 46 9 62 6 42 6 232 0 280 -21
159 -75 227 -164 205z"/>
<path d="M5009 4716 c-3 -32 -4 -2423 -1 -2433 3 -8 253 -11 998 -11 l994 0 0
1228 0 1228 -264 0 -263 0 -7 -82 c-3 -44 -8 -90 -10 -101 -38 -186 -120 -321
-236 -388 -62 -36 -153 -55 -241 -52 -219 9 -369 157 -425 420 -6 27 -14 91
-18 145 -2 25 -4 48 -5 52 -2 12 -521 7 -522 -6z m1053 -977 c129 -27 226
-104 283 -224 31 -64 39 -91 51 -165 5 -35 5 -201 0 -226 -2 -12 -7 -38 -10
-59 -11 -65 -53 -179 -90 -241 -110 -185 -306 -297 -553 -319 l-61 -5 -7 53
c-4 28 -9 59 -10 68 -2 9 -6 40 -10 70 -4 30 -9 57 -12 62 -2 4 2 7 9 8 158
10 298 71 369 160 31 39 64 99 55 99 -2 0 -25 -10 -52 -21 -105 -47 -274 -27
-369 42 -194 142 -179 500 27 636 98 65 248 90 380 62z"/>
<path d="M5895 3471 c-41 -18 -68 -59 -72 -108 -5 -58 10 -89 57 -121 29 -20
44 -23 89 -19 49 3 59 8 87 41 29 34 32 44 31 92 -2 46 -7 59 -34 86 -26 26
-41 32 -85 35 -29 1 -62 -1 -73 -6z"/>
<path d="M5863 4637 c7 -112 29 -188 65 -228 70 -78 172 -24 197 106 5 22 10
47 11 55 2 8 5 47 6 85 l3 70 -144 2 -144 2 6 -92z"/>
</g>
</svg>
